<?xml version="1.0" encoding="UTF-8"?>
<svg xmlns="http://www.w3.org/2000/svg" xmlns:xlink="http://www.w3.org/1999/xlink" width="108.56pt" height="57.16657pt" viewBox="0 0 108.56 57.16657" version="1.1">
<defs>
<clipPath id="clip1">
  <path d="M 23 0 L 86 0 L 86 57.167969 L 23 57.167969 Z M 23 0 "/>
</clipPath>
<clipPath id="clip2">
  <path d="M 0 0 L 108.558594 0 L 108.558594 57.167969 L 0 57.167969 Z M 0 0 "/>
</clipPath>
</defs>
<g id="surface1">
<g clip-path="url(#clip1)" clip-rule="nonzero">
<path style="fill:none;stroke-width:0.3985;stroke-linecap:butt;stroke-linejoin:miter;stroke:rgb(0%,0%,0%);stroke-opacity:1;stroke-miterlimit:10;" d="M -25.510031 0.00111125 L 25.513406 0.00111125 L 25.513406 51.024549 L -25.510031 51.024549 L -25.510031 0.00111125 L 25.513406 51.024549 M -25.510031 51.024549 L 25.513406 0.00111125 " transform="matrix(1,0,0,-1,54.303,54.26283)"/>
</g>
<path style=" stroke:none;fill-rule:nonzero;fill:rgb(0%,0%,0%);fill-opacity:1;" d="M 30.785156 54.261719 C 30.785156 53.164063 29.890625 52.269531 28.792969 52.269531 C 27.691406 52.269531 26.796875 53.164063 26.796875 54.261719 C 26.796875 55.363281 27.691406 56.253906 28.792969 56.253906 C 29.890625 56.253906 30.785156 55.363281 30.785156 54.261719 Z M 30.785156 54.261719 "/>
<path style=" stroke:none;fill-rule:nonzero;fill:rgb(0%,0%,0%);fill-opacity:1;" d="M 81.808594 54.261719 C 81.808594 53.164063 80.914063 52.269531 79.816406 52.269531 C 78.714844 52.269531 77.824219 53.164063 77.824219 54.261719 C 77.824219 55.363281 78.714844 56.253906 79.816406 56.253906 C 80.914063 56.253906 81.808594 55.363281 81.808594 54.261719 Z M 81.808594 54.261719 "/>
<path style=" stroke:none;fill-rule:nonzero;fill:rgb(0%,0%,0%);fill-opacity:1;" d="M 81.808594 3.238281 C 81.808594 2.136719 80.914063 1.246094 79.816406 1.246094 C 78.714844 1.246094 77.824219 2.136719 77.824219 3.238281 C 77.824219 4.339844 78.714844 5.230469 79.816406 5.230469 C 80.914063 5.230469 81.808594 4.339844 81.808594 3.238281 Z M 81.808594 3.238281 "/>
<path style=" stroke:none;fill-rule:nonzero;fill:rgb(0%,0%,0%);fill-opacity:1;" d="M 30.785156 3.238281 C 30.785156 2.136719 29.890625 1.246094 28.792969 1.246094 C 27.691406 1.246094 26.796875 2.136719 26.796875 3.238281 C 26.796875 4.339844 27.691406 5.230469 28.792969 5.230469 C 29.890625 5.230469 30.785156 4.339844 30.785156 3.238281 Z M 30.785156 3.238281 "/>
<path style=" stroke:none;fill-rule:nonzero;fill:rgb(0%,0%,0%);fill-opacity:1;" d="M 56.296875 28.75 C 56.296875 27.652344 55.402344 26.757813 54.304688 26.757813 C 53.203125 26.757813 52.308594 27.652344 52.308594 28.75 C 52.308594 29.851563 53.203125 30.742188 54.304688 30.742188 C 55.402344 30.742188 56.296875 29.851563 56.296875 28.75 Z M 56.296875 28.75 "/>
<g clip-path="url(#clip2)" clip-rule="nonzero">
<path style="fill:none;stroke-width:0.3985;stroke-linecap:butt;stroke-linejoin:miter;stroke:rgb(0%,0%,0%);stroke-opacity:1;stroke-miterlimit:10;" d="M -25.510031 0.00111125 L -51.025656 25.51283 L -25.510031 51.024549 M 25.513406 51.024549 L 51.025125 25.51283 L 25.513406 0.00111125 " transform="matrix(1,0,0,-1,54.303,54.26283)"/>
</g>
<path style=" stroke:none;fill-rule:nonzero;fill:rgb(0%,0%,0%);fill-opacity:1;" d="M 5.273438 28.75 C 5.273438 27.652344 4.378906 26.757813 3.277344 26.757813 C 2.179688 26.757813 1.285156 27.652344 1.285156 28.75 C 1.285156 29.851563 2.179688 30.742188 3.277344 30.742188 C 4.378906 30.742188 5.273438 29.851563 5.273438 28.75 Z M 5.273438 28.75 "/>
<path style=" stroke:none;fill-rule:nonzero;fill:rgb(0%,0%,0%);fill-opacity:1;" d="M 107.320313 28.75 C 107.320313 27.652344 106.425781 26.757813 105.328125 26.757813 C 104.226563 26.757813 103.335938 27.652344 103.335938 28.75 C 103.335938 29.851563 104.226563 30.742188 105.328125 30.742188 C 106.425781 30.742188 107.320313 29.851563 107.320313 28.75 Z M 107.320313 28.75 "/>
</g>
</svg>
